<?xml version="1.0" encoding="UTF-8"?>
<svg version="1.1" xmlns="http://www.w3.org/2000/svg" width="537" height="261">
<path d="M0 0 C177.21 0 354.42 0 537 0 C537 86.13 537 172.26 537 261 C359.79 261 182.58 261 0 261 C0 174.87 0 88.74 0 0 Z " fill="#41474E" transform="translate(0,0)"/>
<path d="M0 0 C8.75799989 6.20994069 15.88842176 14.04793692 18.0859375 24.90625 C20.76790352 46.65192045 9.29056037 62.9428695 -3.40234375 79.44140625 C-9.28792893 86.87855167 -15.31479766 94.16877616 -21.625 101.25 C-23.3324998 99.96937515 -24.99873596 98.63232443 -26.625 97.25 C-26.625 96.59 -26.625 95.93 -26.625 95.25 C-27.285 95.25 -27.945 95.25 -28.625 95.25 C-29.88671875 93.91162109 -29.88671875 93.91162109 -31.3125 92.0234375 C-32.10599854 90.98062622 -32.10599854 90.98062622 -32.91552734 89.91674805 C-33.47965332 89.16047119 -34.0437793 88.40419434 -34.625 87.625 C-35.20588379 86.85389893 -35.78676758 86.08279785 -36.38525391 85.28833008 C-38.1409078 82.94882368 -39.88495211 80.60113014 -41.625 78.25 C-42.11194336 77.59467285 -42.59888672 76.9393457 -43.10058594 76.26416016 C-54.8916968 60.32965463 -64.66500273 45.73415109 -62.625 25.25 C-60.34249083 15.12052142 -53.10829289 6.08015149 -44.625 0.25 C-30.50397174 -7.81603627 -14.04033874 -8.78108142 0 0 Z " fill="#FBFBFB" transform="translate(115.625,93.75)"/>
<path d="M0 0 C1.4540625 0.99 1.4540625 0.99 2.9375 2 C2.9375 2.66 2.9375 3.32 2.9375 4 C3.5975 4 4.2575 4 4.9375 4 C5.59107278 5.22506898 6.23498233 6.45529516 6.875 7.6875 C7.41447266 8.71423828 7.41447266 8.71423828 7.96484375 9.76171875 C9.66772359 13.68039405 10.0643049 17.52426089 10.0703125 21.765625 C10.07224609 23.10173828 10.07224609 23.10173828 10.07421875 24.46484375 C10.07035156 25.38394531 10.06648438 26.30304688 10.0625 27.25 C10.06830078 28.60544922 10.06830078 28.60544922 10.07421875 29.98828125 C10.06290437 37.85177609 9.91551487 45.3620602 6.875 52.71484375 C6.15959045 54.45865454 5.50352698 56.22693108 4.875 58.00390625 C-0.95609181 74.25040219 -9.52759484 86.23254742 -25.0625 94 C-29.84482917 94.40045268 -34.43207396 94.6379928 -38.9375 92.875 C-46.40103227 86.28953035 -49.59146164 78.96251083 -50.37109375 69.09375 C-51.1770193 48.26103244 -44.43631542 26.01914504 -30.83984375 9.89453125 C-22.81555837 1.3411721 -11.84120097 -6.70842232 0 0 Z " fill="#474C52" transform="translate(229.0625,96)"/>
<path d="M0 0 C0.9075 -0.01611328 1.815 -0.03222656 2.75 -0.04882812 C12.38032254 -0.0557664 18.59762375 2.47312426 25.640625 9.0546875 C33.6639797 18.18362257 33.34158051 30.26627633 32.84716797 41.71777344 C32.28553109 48.27719848 30.16008652 54.27921549 27.625 60.3125 C27.23948975 61.23651611 27.23948975 61.23651611 26.84619141 62.17919922 C19.72973426 78.71436823 7.55316824 92.51839538 -9.375 99.3125 C-19.3267266 102.79560431 -30.74982347 102.75933155 -40.375 98.3125 C-40.99890625 98.04566406 -41.6228125 97.77882813 -42.265625 97.50390625 C-48.76651782 94.32412172 -52.53685669 88.86555256 -55.015625 82.203125 C-56.64820293 77.03911796 -56.91169363 72.13872202 -56.875 66.75 C-56.87072998 65.79125977 -56.86645996 64.83251953 -56.86206055 63.84472656 C-56.65266323 54.97456725 -54.75112322 47.46756772 -51.375 39.3125 C-51.00246094 38.3946875 -50.62992188 37.476875 -50.24609375 36.53125 C-42.85266932 20.25025961 -30.00526862 8.1143053 -13.6953125 1.171875 C-9.10109868 -0.01721564 -4.72632318 -0.01664198 0 0 Z M-26.57421875 18.26171875 C-31.68108804 26.17007063 -35.32827527 34.44721827 -38.375 43.3125 C-38.79007813 44.50617188 -39.20515625 45.69984375 -39.6328125 46.9296875 C-43.4737296 59.41938295 -45.1329126 75.1351274 -39.375 87.3125 C-36.60645551 92.13512588 -33.78703296 96.50848901 -28.375 98.3125 C-20.34056311 99.23448456 -14.92788034 98.00914618 -8.375 93.3125 C-7.45074219 92.66087891 -7.45074219 92.66087891 -6.5078125 91.99609375 C4.72614798 83.23360457 11.9821822 67.91585564 15.1171875 54.32421875 C15.625 52.3125 15.625 52.3125 16.625 51.3125 C17.53635736 44.80280455 17.83675974 38.38026549 17.875 31.8125 C17.895625 30.92691406 17.91625 30.04132813 17.9375 29.12890625 C17.98301411 21.38012823 16.16006371 15.16768326 12.625 8.3125 C11.965 8.3125 11.305 8.3125 10.625 8.3125 C10.625 7.6525 10.625 6.9925 10.625 6.3125 C-3.58987532 -3.36571298 -17.39147547 5.94738273 -26.57421875 18.26171875 Z " fill="#F9F9F9" transform="translate(221.375,91.6875)"/>
<path d="M0 0 C3.71875 2.078125 3.71875 2.078125 5.125 4.1875 C5.84738405 7.17335409 6.33427223 9.2053707 6.125 12.1875 C4.36035939 15.04743478 3.12934303 16.68532849 0.125 18.1875 C-3.4375 18.3125 -3.4375 18.3125 -6.875 18.1875 C-7.875 17.1875 -7.875 17.1875 -8.25 13.9375 C-7.875 10.1875 -7.875 10.1875 -5.5 7.25 C-2.875 5.1875 -2.875 5.1875 -0.875 5.1875 C-0.875 4.5275 -0.875 3.8675 -0.875 3.1875 C-6.79733961 1.92512328 -6.79733961 1.92512328 -12.3125 3.625 C-12.828125 4.140625 -13.34375 4.65625 -13.875 5.1875 C-14.535 5.1875 -15.195 5.1875 -15.875 5.1875 C-17.97125982 10.03510083 -19.38681141 15.06736896 -20.875 20.125 C-21.3949609 21.88437265 -21.91577372 23.64349379 -22.4375 25.40234375 C-22.66566406 26.17698975 -22.89382813 26.95163574 -23.12890625 27.74975586 C-23.99452899 30.5780422 -24.9396655 33.38149649 -25.875 36.1875 C-20.595 36.1875 -15.315 36.1875 -9.875 36.1875 C-9.875 37.1775 -9.875 38.1675 -9.875 39.1875 C-15.485 39.1875 -21.095 39.1875 -26.875 39.1875 C-27.43670898 41.61988037 -27.99841797 44.05226074 -28.57714844 46.55834961 C-30.74759987 55.84074523 -33.16904388 65.04795513 -35.640625 74.25390625 C-36.08353339 75.91106884 -36.5262169 77.56829154 -36.96868896 79.22557068 C-38.11720058 83.52496084 -39.26870323 87.82354401 -40.42089844 92.12194824 C-41.60277108 96.53327559 -42.78171967 100.94538426 -43.9609375 105.35742188 C-46.26281438 113.96820148 -48.56786174 122.57812873 -50.875 131.1875 C-57.31 132.1775 -57.31 132.1775 -63.875 133.1875 C-62.45346229 125.48126924 -60.92650177 117.99565717 -58.625 110.5 C-55.82795593 101.38666228 -53.56130221 92.15110657 -51.28613281 82.89575195 C-49.90808517 77.29401175 -48.48690292 71.72725831 -46.875 66.1875 C-45.65390985 61.71176758 -44.45267836 57.23071022 -43.25 52.75 C-42.92515625 51.54150391 -42.6003125 50.33300781 -42.265625 49.08789062 C-41.46826031 46.12122495 -40.67140014 43.15442473 -39.875 40.1875 C-43.505 39.8575 -47.135 39.5275 -50.875 39.1875 C-50.875 38.1975 -50.875 37.2075 -50.875 36.1875 C-46.585 36.1875 -42.295 36.1875 -37.875 36.1875 C-37.6275 34.723125 -37.38 33.25875 -37.125 31.75 C-35.0705962 21.56417978 -30.01440468 10.8798994 -21.875 4.1875 C-14.62004362 -0.4281313 -8.39955076 -2.37378608 0 0 Z " fill="#F7F7F7" transform="translate(317.875,83.8125)"/>
<path d="M0 0 C4.52755242 3.75455567 4.52755242 3.75455567 4.875 7.4375 C4.54858688 11.28917484 3.88377833 13.08948219 1.5625 16.125 C-1.45074195 17.63162097 -4.12036377 17.30270373 -7.4375 17.125 C-9.4375 15.125 -9.4375 15.125 -9.875 12.3125 C-9.2988528 8.1148561 -7.67292571 6.74415415 -4.4375 4.125 C-3.7775 4.125 -3.1175 4.125 -2.4375 4.125 C-4.21927133 1.7493049 -5.23825988 1.16575366 -8.1875 0.5625 C-13.01843581 1.39862351 -15.54340371 3.16002031 -18.4375 7.125 C-22.19945745 15.73389993 -24.2984553 25.00591471 -26.4375 34.125 C-21.4875 34.455 -16.5375 34.785 -11.4375 35.125 C-11.4375 36.115 -11.4375 37.105 -11.4375 38.125 C-17.0475 38.125 -22.6575 38.125 -28.4375 38.125 C-28.66421387 39.55239502 -28.89092773 40.97979004 -29.12451172 42.45043945 C-30.697253 51.07304205 -33.12606368 59.47322037 -35.4453125 67.91796875 C-35.93610341 69.71817707 -36.42648361 71.51849741 -36.91647339 73.31892395 C-38.19796289 78.02334946 -39.48497269 82.72624694 -40.77319336 87.42883301 C-42.09045683 92.24134691 -43.40241743 97.05530579 -44.71484375 101.86914062 C-47.28391577 111.2891708 -49.85883021 120.70759298 -52.4375 130.125 C-56.3975 130.455 -60.3575 130.785 -64.4375 131.125 C-63.84298858 124.21734352 -62.49510437 117.810714 -60.6875 111.125 C-60.41800537 110.10881592 -60.14851074 109.09263184 -59.87084961 108.0456543 C-58.16309094 101.65830449 -56.32937623 95.31888646 -54.40991211 88.99267578 C-51.93562076 80.68197359 -49.9179285 72.24978664 -47.84790039 63.83129883 C-45.705375 55.11941698 -43.31401688 46.62379987 -40.4375 38.125 C-44.3975 38.125 -48.3575 38.125 -52.4375 38.125 C-52.4375 37.135 -52.4375 36.145 -52.4375 35.125 C-48.1475 35.125 -43.8575 35.125 -39.4375 35.125 C-39.2725 33.805 -39.1075 32.485 -38.9375 31.125 C-37.00453503 21.51501105 -31.86736521 9.90148556 -24.34375 3.38671875 C-16.90353497 -1.53784981 -8.20344188 -4.47460466 0 0 Z " fill="#F7F7F7" transform="translate(363.4375,84.875)"/>
<path d="M0 0 C-1.39362296 7.41079504 -3.13117746 14.6946028 -5 22 C0.94 22 6.88 22 13 22 C12.505 23.485 12.505 23.485 12 25 C5.73 25 -0.54 25 -7 25 C-7.33 27.64 -7.66 30.28 -8 33 C-8.38551258 34.71568797 -8.81153706 36.42315529 -9.29101562 38.11499023 C-9.54798218 39.03211288 -9.80494873 39.94923553 -10.06970215 40.89414978 C-10.34576294 41.85591629 -10.62182373 42.8176828 -10.90625 43.80859375 C-11.19101196 44.81592056 -11.47577393 45.82324738 -11.76916504 46.86109924 C-12.36822678 48.97549214 -12.97012187 51.08908413 -13.57470703 53.2019043 C-14.50348778 56.44969617 -15.42232642 59.70018215 -16.33984375 62.95117188 C-16.92389878 65.0079774 -17.50851415 67.0646239 -18.09375 69.12109375 C-18.50784119 70.58499794 -18.50784119 70.58499794 -18.93029785 72.07847595 C-19.31574768 73.42106224 -19.31574768 73.42106224 -19.70898438 74.79077148 C-19.93469116 75.58160629 -20.16039795 76.3724411 -20.39294434 77.1872406 C-21 79 -21 79 -22 80 C-22.24733137 84.14276875 -22.24733137 84.14276875 -21 88 C-15.32124814 88.54716606 -15.32124814 88.54716606 -10.3125 86.25 C-6.96112865 81.53996459 -5.02082623 76.39173637 -3 71 C-2.34 71 -1.68 71 -1 71 C-1.48595621 78.4513285 -4.24219748 85.93417829 -9.9375 91 C-15.18451299 94.42662073 -20.7402526 96.24448258 -27 95 C-30.52160796 93.02242318 -32.69962429 90.90112712 -34 87 C-34.8234694 79.08962085 -32.99104056 72.16826855 -30.71875 64.6484375 C-30.38580933 63.50839264 -30.05286865 62.36834778 -29.70983887 61.1937561 C-28.65243194 57.58367471 -27.57655498 53.97941203 -26.5 50.375 C-25.77611273 47.9157266 -25.05344381 45.45609423 -24.33203125 42.99609375 C-22.56875382 36.99315157 -20.78890043 30.9953539 -19 25 C-22.63 25 -26.26 25 -30 25 C-30 24.01 -30 23.02 -30 22 C-25.71 22 -21.42 22 -17 22 C-16.731875 20.576875 -16.46375 19.15375 -16.1875 17.6875 C-15.06546807 12.04505165 -13.577032 6.53012553 -12 1 C-7.915021 0.45533613 -4.1274515 0 0 0 Z " fill="#F6F7F7" transform="translate(485,98)"/>
<path d="M0 0 C2.5 1.4375 2.5 1.4375 4 4 C5.19110564 12.78440406 2.17593456 21.53911161 0 30 C0.27972656 29.26136719 0.55945313 28.52273437 0.84765625 27.76171875 C5.06333054 17.0937584 9.67015677 6.88351941 20 1 C23.59264452 -0.19754817 26.22717474 -0.33094958 30 0 C32.4375 1.5625 32.4375 1.5625 34 4 C34.63370021 8.97907311 34.07125085 12.0187489 31 16 C27.53076119 18.31282587 26.07794425 18.42478586 22 18 C20.0625 16.9375 20.0625 16.9375 19 15 C19.12940471 11.3766682 19.24987928 8.93014969 21.5625 6.0625 C22.036875 5.711875 22.51125 5.36125 23 5 C18.78609119 5.46821209 16.54848164 7.84979353 14 11 C0.70473679 28.88994976 -5.65052065 51.66501767 -11 73 C-14.96 73 -18.92 73 -23 73 C-22.44001244 66.38014709 -21.16618183 60.41231777 -19.25 54.0625 C-18.70504133 52.20983761 -18.16078273 50.35696916 -17.6171875 48.50390625 C-17.34487305 47.5823877 -17.07255859 46.66086914 -16.79199219 45.71142578 C-15.60670986 41.65355108 -14.49082044 37.57740851 -13.375 33.5 C-11.64989908 27.2203295 -9.79750618 20.99555192 -7.796875 14.796875 C-6.96553056 11.87901903 -6.44367276 8.99922785 -6 6 C-10.07970944 6.78455951 -12.40900061 7.32457213 -15.1875 10.5 C-17.45868878 14.88574385 -19.2810843 19.37355668 -21 24 C-21.99 23.67 -22.98 23.34 -24 23 C-22.02523961 14.70254186 -19.10196521 6.3026486 -11.625 1.4375 C-7.16146018 -0.33252441 -4.7562166 -0.62376611 0 0 Z " fill="#F5F5F6" transform="translate(374,118)"/>
<path d="M0 0 C2.66948712 2.04760284 3.84441987 3.24929915 4.53344727 6.57397461 C4.45175826 14.56801985 2.74745161 21.11251996 -0.0625 28.5625 C-0.46791016 29.68640137 -0.87332031 30.81030273 -1.29101562 31.96826172 C-3.18851298 37.20574165 -5.15498264 42.41688351 -7.12109375 47.62890625 C-7.59953735 48.90495728 -7.59953735 48.90495728 -8.08764648 50.20678711 C-8.67451899 51.76230549 -9.27093892 53.31427281 -9.87915039 54.86157227 C-11.69209363 59.60501149 -12.54490098 63.93702345 -13 69 C-7.50424093 68.05090232 -7.50424093 68.05090232 -3.8125 64 C-1.59623745 59.46193859 0.21416081 54.72107489 2 50 C2.99 50 3.98 50 5 50 C2.66297565 59.80633745 -0.44841362 68.96825453 -9.4375 74.5 C-14.69431778 75.52572054 -18.35401917 76.06302929 -23 73.0625 C-25.6486553 69.00674658 -25.53551229 65.66543491 -25 61 C-23.99816736 56.94928019 -22.65048841 53.05332033 -21.25 49.125 C-20.90195312 48.11308594 -20.55390625 47.10117188 -20.1953125 46.05859375 C-19.14900024 43.03203867 -18.07962039 40.01482149 -17 37 C-16.64244629 36.00009033 -16.28489258 35.00018066 -15.91650391 33.9699707 C-14.33312391 29.5768096 -12.70459677 25.23492497 -10.875 20.9375 C-8.88902666 16.06639216 -7.83771853 11.18062775 -7 6 C-11.07970944 6.78455951 -13.40900061 7.32457213 -16.1875 10.5 C-18.45868878 14.88574385 -20.2810843 19.37355668 -22 24 C-22.99 24 -23.98 24 -25 24 C-23.26121203 15.83989858 -21.01234799 7.83968687 -14.11328125 2.5546875 C-9.3827536 -0.10333 -5.35822025 -0.71442937 0 0 Z " fill="#F6F6F7" transform="translate(434,118)"/>
<path d="M0 0 C6.0546875 -0.1953125 6.0546875 -0.1953125 8 0 C8.66 0.66 9.32 1.32 10 2 C13.00886724 2.24606015 15.93217752 2.37380782 18.9453125 2.4140625 C19.8303244 2.43342865 20.7153363 2.4527948 21.62716675 2.4727478 C24.45967916 2.53262723 27.29223203 2.57896213 30.125 2.625 C32.04298668 2.66317211 33.96095607 2.70222338 35.87890625 2.7421875 C40.58579748 2.83833555 45.29276896 2.92233542 50 3 C49.34298315 8.21274692 48.18319408 12.21376682 46 17 C45.4483501 18.45458629 44.9066427 19.91298258 44.375 21.375 C43 25 43 25 42 26 C40.5112814 26.08669432 39.018555 26.10703494 37.52734375 26.09765625 C36.62822266 26.09443359 35.72910156 26.09121094 34.80273438 26.08789062 C33.85720703 26.07951172 32.91167969 26.07113281 31.9375 26.0625 C30.98810547 26.05798828 30.03871094 26.05347656 29.06054688 26.04882812 C26.70696935 26.0370011 24.35351523 26.02052025 22 26 C22 24.68 22 23.36 22 22 C27.94 21.67 33.88 21.34 40 21 C40.804375 18.89625 41.60875 16.7925 42.4375 14.625 C44.875 8.25 44.875 8.25 46 6 C34.78 6 23.56 6 12 6 C12.94875 9.42375 13.8975 12.8475 14.875 16.375 C15.17003418 17.45313965 15.46506836 18.5312793 15.76904297 19.64208984 C16.00768066 20.48980957 16.24631836 21.3375293 16.4921875 22.2109375 C16.85352783 23.51490479 16.85352783 23.51490479 17.22216797 24.84521484 C17.89007553 27.17341753 17.89007553 27.17341753 20 29 C22.42246595 29.37095708 22.42246595 29.37095708 25.2265625 29.4140625 C26.7734375 29.47207031 26.7734375 29.47207031 28.3515625 29.53125 C29.97191406 29.57765625 29.97191406 29.57765625 31.625 29.625 C32.71296875 29.66367188 33.8009375 29.70234375 34.921875 29.7421875 C37.61441165 29.83666247 40.30693757 29.92222431 43 30 C43 30.99 43 31.98 43 33 C38.9169058 33.11614929 34.83423623 33.18723457 30.75 33.25 C29.59113281 33.28351563 28.43226562 33.31703125 27.23828125 33.3515625 C26.12324219 33.36445313 25.00820312 33.37734375 23.859375 33.390625 C22.83295898 33.41157227 21.80654297 33.43251953 20.74902344 33.45410156 C17.20468144 32.86862411 16.14458779 31.84759413 14 29 C12.91918945 26.35864258 12.91918945 26.35864258 12.11328125 23.39453125 C11.81486328 22.32912109 11.51644531 21.26371094 11.20898438 20.16601562 C10.91314453 19.05935547 10.61730469 17.95269531 10.3125 16.8125 C9.70696506 14.60997775 9.09902513 12.40811479 8.48828125 10.20703125 C8.22571533 9.2322583 7.96314941 8.25748535 7.69262695 7.25317383 C7.20854534 5.05250426 7.20854534 5.05250426 6 4 C3.67182036 3.63239269 1.3381615 3.29758419 -1 3 C-0.67 2.01 -0.34 1.02 0 0 Z " fill="#4A5056" transform="translate(69,112)"/>
<path d="M0 0 C2.09500097 3.14250146 2.60214043 5.1628484 2.51171875 8.92578125 C1.67818764 12.30444551 -0.32411172 13.90944602 -3.05859375 15.92578125 C-5.98102457 17.54282044 -7.75590124 17.79300192 -11 17 C-13.4375 14.9375 -13.4375 14.9375 -15 12 C-15.08087401 7.47105531 -14.50508097 5.59573652 -11.5625 2.125 C-7.34191002 -1.37500145 -5.36426303 -1.14948494 0 0 Z " fill="#F5F5F6" transform="translate(445,87)"/>
<path d="M0 0 C-1 2 -1 2 -2.85668945 2.62402344 C-9.67846864 3.97870299 -16.24287683 4.30218252 -23.1875 4.25 C-24.22841797 4.25773438 -25.26933594 4.26546875 -26.34179688 4.2734375 C-31.91749247 4.259277 -36.78112458 4.05001469 -42 2 C-42.33 1.34 -42.66 0.68 -43 0 C-30.52573904 -6.23713048 -12.77700795 -3.61979315 0 0 Z " fill="#F4F4F5" transform="translate(115,208)"/>
<path d="M0 0 C0.625 2.3125 0.625 2.3125 1 5 C0.01 6.485 0.01 6.485 -1 8 C-3.8899704 8.44461083 -5.38813841 8.38751234 -7.875 6.8125 C-9 5 -9 5 -8.8125 2.375 C-7.20916102 -2.31168316 -4.14069436 -0.81013585 0 0 Z " fill="#575C62" transform="translate(92,148)"/>
<path d="M0 0 C2.33944736 0.28730055 4.6739143 0.61936779 7 1 C7.125 3.875 7.125 3.875 7 7 C5 9 5 9 2.5 9.3125 C1.2625 9.1578125 1.2625 9.1578125 0 9 C-2 6 -2 6 -1.6875 3.375 C-1 1 -1 1 0 0 Z " fill="#565C62" transform="translate(105,147)"/>
<path d="M0 0 C1.32830615 3.98491845 0.23204404 5.40048548 -1.4375 9.1875 C-1.91058594 10.27417969 -2.38367188 11.36085937 -2.87109375 12.48046875 C-3.42990234 13.72763672 -3.42990234 13.72763672 -4 15 C-4.99 14.67 -5.98 14.34 -7 14 C-4.29384966 3.25740319 -4.29384966 3.25740319 0 0 Z " fill="#E9EAEA" transform="translate(357,127)"/>
<path d="M0 0 C0.99 0 1.98 0 3 0 C2.40895235 4.84659077 1.02055843 8.60748167 -1 13 C-1.99 13 -2.98 13 -4 13 C-3.52343588 11.20763933 -3.04366502 9.41613103 -2.5625 7.625 C-2.29566406 6.62726563 -2.02882813 5.62953125 -1.75390625 4.6015625 C-1 2 -1 2 0 0 Z " fill="#E8E8E9" transform="translate(413,129)"/>
<path d="M0 0 C0.66 0.33 1.32 0.66 2 1 C-0.475 6.94 -0.475 6.94 -3 13 C-4.25231188 7.9907525 -3.51632676 5.86820697 -2 1 C-1.34 0.67 -0.68 0.34 0 0 Z " fill="#6D7277" transform="translate(377,137)"/>
<path d="M0 0 C0.99 0 1.98 0 3 0 C2.37240135 2.92879371 1.41377341 5.36095629 0 8 C-0.66 8 -1.32 8 -2 8 C-1.34 5.36 -0.68 2.72 0 0 Z " fill="#D7D8D9" transform="translate(436,168)"/>
<path d="M0 0 C2.97 0 5.94 0 9 0 C8.67 0.66 8.34 1.32 8 2 C5.93359375 2.6328125 5.93359375 2.6328125 3.4375 3.125 C2.19806641 3.37636719 2.19806641 3.37636719 0.93359375 3.6328125 C0.29550781 3.75398438 -0.34257812 3.87515625 -1 4 C-0.67 2.68 -0.34 1.36 0 0 Z " fill="#D9DADB" transform="translate(306,83)"/>
<path d="M0 0 C0.66 0 1.32 0 2 0 C1.75 2.875 1.75 2.875 1 6 C-1.0625 7.375 -1.0625 7.375 -3 8 C-1.125 2.25 -1.125 2.25 0 0 Z " fill="#E8E9E9" transform="translate(482,169)"/>
<path d="M0 0 C0.33 0.99 0.66 1.98 1 3 C-0.3125 5.1875 -0.3125 5.1875 -2 7 C-2.66 7 -3.32 7 -4 7 C-3.39816251 4.97954558 -2.72693904 2.97888961 -2 1 C-1.34 0.67 -0.68 0.34 0 0 Z " fill="#EAEAEB" transform="translate(380,137)"/>
<path d="M0 0 C0.625 1.875 0.625 1.875 1 4 C0.34 4.66 -0.32 5.32 -1 6 C-1.66 6 -2.32 6 -3 6 C-2.625 3.5625 -2.625 3.5625 -2 1 C-1.34 0.67 -0.68 0.34 0 0 Z " fill="#EBECEC" transform="translate(435,175)"/>
</svg>
